# xmcd
#
# Track frame offsets:
#	150
#	14332
#	38465
#	57369
#	78708
#	99097
#	117129
#	134340
#	153412
#	169187
#
# Disc length: 2558 seconds
#
# Revision: 1
# Processed by: cddbd v1.5.1PL0 Copyright (c) Steve Scherf et al.
# Submitted via: audiograbber 1.83.01
#
DISCID=7309fc0a
DTITLE=Eddie Manion - Follow Through
DYEAR=2004
DGENRE=Blues
TTITLE0=Harlem Nocturne
TTITLE1=There's A Reason
TTITLE2=Unspoken Love
TTITLE3=Feel So Bad
TTITLE4=Streets Of London
TTITLE5=Follow Through
TTITLE6=Blackjack
TTITLE7=Sleepwalk
TTITLE8=My Son My Daughter
TTITLE9=Wishing You Here
EXTD=YEAR: 2004
EXTT0=
EXTT1=
EXTT2=
EXTT3=
EXTT4=
EXTT5=
EXTT6=
EXTT7=
EXTT8=
EXTT9=
PLAYORDER=
